<?xml version="1.0" encoding="utf-8"?>
<!-- Generator: Adobe Illustrator 23.0.0, SVG Export Plug-In . SVG Version: 6.00 Build 0)  -->
<svg version="1.1" id="Capa_1" xmlns="http://www.w3.org/2000/svg" xmlns:xlink="http://www.w3.org/1999/xlink" x="0px" y="0px"
	 viewBox="0 0 2123 942" style="enable-background:new 0 0 2123 942;" xml:space="preserve">
<style type="text/css">
	.st0{fill:#FFC40C;}
	.st1{fill:#8DC63F;}
	.st2{fill:#EE4423;}
	.st3{fill:#44A8DE;}
</style>
<path d="M338.32,271.08c29.75,0,57.81,5.62,84.2,16.84c26.37,11.24,49.38,26.67,69.04,46.31c19.64,19.65,35.22,42.66,46.73,69.04
	c11.5,26.39,17.26,54.45,17.26,84.2c0,29.76-5.76,57.82-17.26,84.2c-11.51,26.39-27.09,49.4-46.73,69.04
	c-19.66,19.66-42.67,35.08-69.04,46.31c-26.39,11.22-54.45,16.84-84.2,16.84c-57.82,0-101.87-21.33-132.19-64v57.26H95V107.75
	h111.98v379.72c0,16.29,3.08,31.44,9.25,45.47c6.17,14.04,14.45,26.25,24.84,36.62c10.38,10.39,22.73,18.67,37.05,24.84
	c14.31,6.18,29.6,9.25,45.89,9.25c15.71,0,30.74-3.08,45.05-9.25c14.3-6.17,26.64-14.45,37.04-24.84
	c10.39-10.38,18.66-22.58,24.83-36.62c6.17-14.03,9.26-29.18,9.26-45.47c0-16.27-3.09-31.43-9.26-45.47
	c-6.17-14.02-14.45-26.37-24.83-37.04c-10.39-10.66-22.73-18.95-37.04-24.84c-14.31-5.9-29.34-8.84-45.05-8.84
	c-15.15,0-30.31,3.09-45.47,9.25l-0.84,0.84l-0.84-1.68l-41.26-75.78l0.85-0.84C263.94,281.75,297.91,271.08,338.32,271.08z"/>
<path d="M846.84,591.02l40.42,73.25v0.84c-29.2,25.83-65.4,38.74-108.61,38.74c-68.5,0-117.04-18.53-145.66-55.58
	c-26.4-33.11-39.57-85.88-39.57-158.28V276.14h115.35v213.85c0,15.16,0.42,29.76,1.25,43.78c0.85,14.04,3.93,26.4,9.26,37.05
	c5.34,10.67,13.61,19.23,24.84,25.69c11.22,6.45,27.21,9.68,47.99,9.68c9.54,0,18.8-1.4,27.78-4.21c8.97-2.8,17.39-6.45,25.26-10.94
	H846.84z M1023.65,276.14v423.49H908.31V276.14H1023.65z"/>
<path d="M1317.48,271.08c29.75,0,57.81,5.62,84.2,16.84c26.37,11.24,49.38,26.67,69.05,46.31c19.63,19.65,35.22,42.66,46.72,69.04
	c11.5,26.39,17.26,54.45,17.26,84.2c0,29.76-5.75,57.82-17.26,84.2c-11.5,26.39-27.09,49.4-46.72,69.04
	c-19.67,19.66-42.68,35.08-69.05,46.31c-26.39,11.22-54.45,16.84-84.2,16.84c-57.81,0-101.87-21.33-132.19-64v57.26h-111.13V107.75
	h111.99v379.72c0,16.29,3.08,31.44,9.26,45.47c6.17,14.04,14.43,26.25,24.83,36.62c10.38,10.39,22.72,18.67,37.04,24.84
	c14.31,6.18,29.6,9.25,45.89,9.25c15.72,0,30.74-3.08,45.05-9.25c14.31-6.17,26.65-14.45,37.04-24.84
	c10.38-10.38,18.66-22.58,24.85-36.62c6.17-14.03,9.25-29.18,9.25-45.47c0-16.27-3.08-31.43-9.25-45.47
	c-6.19-14.02-14.47-26.37-24.85-37.04c-10.38-10.66-22.72-18.95-37.04-24.84c-14.31-5.9-29.33-8.84-45.05-8.84
	c-15.15,0-30.3,3.09-45.47,9.25l-0.83,0.84l-0.84-1.68l-41.25-75.78l0.83-0.84C1243.1,281.75,1277.06,271.08,1317.48,271.08z"/>
<path d="M1903.46,553.14c0,12.92,4.63,23.86,13.9,32.83c9.26,8.98,20.33,13.47,33.25,13.47h81.67v97.67h-81.67
	c-21.89,0-42.52-4.06-61.88-12.21c-19.36-8.13-36.2-19.36-50.52-33.68c-14.31-14.31-25.68-31.01-34.1-50.1
	c-8.42-19.07-12.63-39.56-12.63-61.46V413.38h-60.62v-93.46h60.62V167.53h111.98V553.14z M2032.28,319.92v93.46h-62.31l-52.2-93.46
	H2032.28z"/>
<g>
	<rect x="1581.3" y="593.17" class="st0" width="103.93" height="103.95"/>
	<rect x="1581.3" y="460.37" class="st1" width="103.93" height="103.93"/>
	<rect x="1581.3" y="317.96" class="st2" width="103.93" height="103.94"/>
	<rect x="1581.3" y="83.55" class="st3" width="103.93" height="103.94"/>
</g>
</svg>
