<?xml version="1.0" encoding="utf-8"?>
<!-- Generator: Adobe Illustrator 23.0.0, SVG Export Plug-In . SVG Version: 6.00 Build 0)  -->
<svg version="1.1" id="Capa_1" xmlns="http://www.w3.org/2000/svg" xmlns:xlink="http://www.w3.org/1999/xlink" x="0px" y="0px"
	 viewBox="0 0 1309 587" style="enable-background:new 0 0 1309 587;" xml:space="preserve">
<style type="text/css">
	.st0{fill:#FFFFFF;}
	.st1{fill:#FFC40C;}
	.st2{fill:#8DC63F;}
	.st3{fill:#EE4423;}
	.st4{fill:#44A8DE;}
</style>
<g>
	<path class="st0" d="M222.79,144.98c18.36,0,35.68,3.47,51.97,10.39c16.28,6.94,30.48,16.46,42.61,28.59
		c12.12,12.13,21.74,26.33,28.85,42.62c7.1,16.29,10.65,33.61,10.65,51.97c0,18.37-3.56,35.69-10.65,51.97
		c-7.11,16.29-16.72,30.49-28.85,42.62c-12.13,12.13-26.34,21.66-42.61,28.59c-16.29,6.93-33.61,10.39-51.97,10.39
		c-35.69,0-62.88-13.17-81.6-39.5v35.34h-68.6V44.15h69.12v234.39c0,10.05,1.9,19.41,5.71,28.07c3.81,8.67,8.92,16.2,15.33,22.61
		c6.4,6.42,14.03,11.53,22.87,15.33c8.84,3.81,18.27,5.71,28.32,5.71c9.7,0,18.97-1.9,27.81-5.71c8.83-3.81,16.45-8.92,22.86-15.33
		c6.41-6.4,11.52-13.94,15.33-22.61c3.81-8.66,5.72-18.01,5.72-28.07c0-10.04-1.91-19.4-5.72-28.07
		c-3.81-8.65-8.92-16.28-15.33-22.86c-6.42-6.58-14.03-11.7-22.86-15.33c-8.84-3.64-18.11-5.46-27.81-5.46
		c-9.35,0-18.71,1.9-28.07,5.71l-0.52,0.52l-0.52-1.04l-25.47-46.78l0.53-0.52C176.88,151.56,197.84,144.98,222.79,144.98z"/>
	<path class="st0" d="M536.69,342.47l24.95,45.22v0.52c-18.02,15.94-40.37,23.91-67.04,23.91c-42.28,0-72.25-11.44-89.91-34.31
		c-16.29-20.44-24.43-53.01-24.43-97.7V148.1h71.2V280.1c0,9.36,0.26,18.37,0.77,27.02c0.53,8.67,2.43,16.29,5.72,22.87
		c3.29,6.59,8.4,11.87,15.33,15.86c6.93,3.98,16.8,5.98,29.63,5.98c5.89,0,11.61-0.86,17.15-2.6c5.54-1.73,10.73-3.98,15.59-6.76
		H536.69z M645.83,148.1v261.42h-71.2V148.1H645.83z"/>
	<path class="st0" d="M827.21,144.98c18.36,0,35.68,3.47,51.97,10.39c16.28,6.94,30.48,16.46,42.62,28.59
		c12.12,12.13,21.74,26.33,28.84,42.62c7.1,16.29,10.65,33.61,10.65,51.97c0,18.37-3.55,35.69-10.65,51.97
		c-7.1,16.29-16.72,30.49-28.84,42.62c-12.14,12.13-26.34,21.66-42.62,28.59c-16.29,6.93-33.61,10.39-51.97,10.39
		c-35.68,0-62.88-13.17-81.6-39.5v35.34h-68.6V44.15h69.13v234.39c0,10.05,1.9,19.41,5.72,28.07c3.81,8.67,8.91,16.2,15.33,22.61
		c6.41,6.42,14.03,11.53,22.86,15.33c8.84,3.81,18.27,5.71,28.32,5.71c9.7,0,18.97-1.9,27.81-5.71c8.84-3.81,16.45-8.92,22.86-15.33
		c6.41-6.4,11.52-13.94,15.34-22.61c3.81-8.66,5.71-18.01,5.71-28.07c0-10.04-1.9-19.4-5.71-28.07
		c-3.82-8.65-8.93-16.28-15.34-22.86c-6.41-6.58-14.03-11.7-22.86-15.33c-8.84-3.64-18.11-5.46-27.81-5.46
		c-9.35,0-18.7,1.9-28.07,5.71l-0.52,0.52l-0.52-1.04l-25.46-46.78l0.52-0.52C781.29,151.56,802.26,144.98,827.21,144.98z"/>
	<path class="st0" d="M1188.92,319.09c0,7.97,2.86,14.73,8.58,20.27c5.71,5.54,12.55,8.31,20.53,8.31h50.41v60.29h-50.41
		c-13.51,0-26.24-2.51-38.2-7.54c-11.95-5.02-22.35-11.95-31.18-20.79c-8.84-8.84-15.85-19.14-21.05-30.93
		c-5.2-11.77-7.8-24.42-7.8-37.94v-77.95h-37.42v-57.69h37.42V81.05h69.12V319.09z M1268.44,175.12v57.69h-38.46l-32.22-57.69
		H1268.44z"/>
	<g>
		<rect x="990.06" y="343.8" class="st1" width="64.15" height="64.17"/>
		<rect x="990.06" y="261.82" class="st2" width="64.15" height="64.15"/>
		<rect x="990.06" y="173.91" class="st3" width="64.15" height="64.16"/>
		<rect x="990.06" y="29.21" class="st4" width="64.15" height="64.16"/>
	</g>
	<g>
		<g>
			<path class="st0" d="M122.46,492.55c0,4.6-0.6,8.88-1.79,12.83c-1.19,3.95-2.89,7.36-5.11,10.23c-2.23,2.88-4.93,5.12-8.11,6.73
				c-3.18,1.61-6.76,2.42-10.75,2.42c-2.61,0-4.94-0.37-7.01-1.1c-2.07-0.73-3.89-1.65-5.46-2.76c-1.57-1.11-2.89-2.36-3.97-3.74
				c-1.07-1.38-1.96-2.72-2.64-4.03h-0.23v10.24H72.2v-85.1l5.17,1.15v37.95h0.23c1.76-3.76,4.54-6.84,8.33-9.26
				c3.8-2.41,8.19-3.63,13.17-3.63c3.76,0,7.07,0.67,9.94,2.02c2.88,1.34,5.31,3.22,7.31,5.64c1.99,2.41,3.5,5.37,4.54,8.85
				C121.94,484.48,122.46,488.34,122.46,492.55z M117.05,492.67c0-3.76-0.46-7.09-1.38-10.01c-0.92-2.91-2.21-5.36-3.85-7.36
				c-1.65-1.99-3.6-3.5-5.87-4.54c-2.26-1.04-4.77-1.55-7.53-1.55c-4.07,0-7.44,0.77-10.12,2.3c-2.68,1.54-4.83,3.43-6.44,5.69
				c-1.61,2.26-2.76,4.72-3.45,7.36c-0.69,2.65-1.04,5.05-1.04,7.19v7.24c0,2.46,0.4,4.95,1.21,7.48c0.81,2.53,2.03,4.79,3.68,6.79
				c1.65,1.99,3.7,3.62,6.15,4.89c2.45,1.27,5.37,1.9,8.74,1.9c2.99,0,5.71-0.67,8.16-2.02c2.46-1.34,4.55-3.22,6.27-5.63
				c1.72-2.41,3.06-5.29,4.03-8.63C116.57,500.43,117.05,496.73,117.05,492.67z"/>
			<path class="st0" d="M175.7,523.37c0-0.46,0.02-1.27,0.06-2.41c0.04-1.15,0.08-2.35,0.12-3.62c0.04-1.27,0.09-2.45,0.17-3.57
				c0.08-1.11,0.15-1.86,0.23-2.24l-0.23-0.12c-1.76,4.29-4.37,7.55-7.82,9.77c-3.45,2.22-7.48,3.33-12.08,3.33
				c-3.45,0-6.36-0.53-8.74-1.61c-2.37-1.07-4.29-2.58-5.75-4.54c-1.46-1.95-2.51-4.33-3.16-7.13c-0.65-2.79-0.98-5.88-0.98-9.25
				v-35.99h5.75v34.15c0,6.36,1,11.21,2.99,14.54c1.99,3.33,5.6,5,10.81,5c2.84,0,5.4-0.57,7.71-1.72c2.3-1.15,4.27-2.74,5.92-4.78
				c1.65-2.03,2.91-4.48,3.79-7.36c0.88-2.88,1.32-6.03,1.32-9.49v-30.36h5.75v57.38H175.7z"/>
			<path class="st0" d="M233.54,508.08c0,2.07-0.46,4.1-1.38,6.09c-0.92,1.99-2.26,3.76-4.03,5.29c-1.76,1.54-4.01,2.76-6.73,3.68
				c-2.72,0.92-5.85,1.38-9.37,1.38c-2.53,0-5.02-0.29-7.47-0.86c-2.46-0.57-4.37-1.21-5.75-1.9c0.08-1.07,0.15-2.1,0.23-3.11
				c0.07-1,0.19-2.03,0.34-3.11c1.76,1.23,3.91,2.21,6.45,2.94c2.53,0.73,4.9,1.09,7.13,1.09c4.75,0,8.4-1.03,10.93-3.11
				c2.53-2.07,3.79-4.71,3.79-7.93c0-2.14-0.71-3.94-2.13-5.4c-1.42-1.46-3.2-2.72-5.34-3.8c-2.15-1.07-4.49-2.13-7.01-3.16
				c-2.53-1.03-4.87-2.2-7.02-3.5c-2.14-1.3-3.93-2.89-5.34-4.78c-1.42-1.88-2.13-4.27-2.13-7.18c0-4.83,1.84-8.68,5.52-11.56
				c3.68-2.87,8.58-4.31,14.72-4.31c2.22,0,4.41,0.25,6.56,0.75c2.15,0.5,3.94,1.05,5.4,1.66c-0.08,0.92-0.15,1.84-0.23,2.76
				c-0.08,0.92-0.16,1.88-0.23,2.88c-1.76-1-3.72-1.78-5.86-2.36c-2.15-0.57-4.34-0.86-6.56-0.86c-4.37,0-7.7,0.96-10.01,2.87
				c-2.3,1.92-3.45,4.45-3.45,7.59c0,2.37,0.7,4.31,2.13,5.81c1.42,1.49,3.2,2.79,5.34,3.91c2.14,1.11,4.49,2.13,7.02,3.05
				c2.53,0.92,4.86,2.03,7.01,3.33c2.15,1.31,3.93,2.88,5.34,4.72C232.83,502.79,233.54,505.17,233.54,508.08z"/>
			<path class="st0" d="M257.12,446.79c0,1.07-0.4,2.01-1.21,2.82c-0.8,0.8-1.78,1.21-2.93,1.21c-1,0-1.88-0.35-2.64-1.04
				c-0.77-0.69-1.15-1.68-1.15-2.99c0-1.22,0.42-2.19,1.27-2.88c0.84-0.69,1.76-1.03,2.76-1.03c1.15,0,2.09,0.35,2.82,1.03
				C256.75,444.6,257.12,445.56,257.12,446.79z M250.33,523.37v-57.38h5.63v57.38H250.33z"/>
			<path class="st0" d="M315.3,523.37v-34.96c0-6.21-1-10.89-2.99-14.03c-1.99-3.14-5.48-4.71-10.46-4.71
				c-2.84,0-5.43,0.59-7.76,1.78c-2.34,1.19-4.35,2.82-6.04,4.89c-1.69,2.07-2.99,4.51-3.91,7.3c-0.92,2.8-1.38,5.85-1.38,9.14
				v30.59h-5.63v-57.38h5.75c0,0.46,0,1.26,0,2.41c0,1.15-0.04,2.36-0.12,3.62c-0.08,1.27-0.15,2.46-0.23,3.56
				c-0.08,1.11-0.15,1.86-0.23,2.24l0.23,0.12c1.76-4.14,4.41-7.36,7.93-9.66c3.53-2.3,7.71-3.45,12.53-3.45
				c3.3,0,6.1,0.54,8.4,1.61c2.3,1.07,4.18,2.59,5.64,4.54c1.45,1.96,2.49,4.25,3.11,6.9c0.61,2.64,0.92,5.5,0.92,8.57v36.91H315.3z
				"/>
			<path class="st0" d="M383.15,490.71c0,0.39,0,0.81,0,1.27c0,0.46-0.04,1-0.12,1.61h-40.59v1.27c0,8.2,1.74,14.37,5.23,18.52
				c3.49,4.14,8.49,6.21,15.01,6.21c3.22,0,6.29-0.47,9.2-1.44c2.91-0.96,5.64-2.32,8.17-4.08c0.15,0.92,0.29,1.84,0.4,2.76
				c0.12,0.92,0.25,1.8,0.4,2.65c-2.53,1.45-5.4,2.66-8.63,3.62c-3.22,0.96-6.78,1.44-10.69,1.44c-3.76,0-7.17-0.57-10.24-1.72
				c-3.06-1.15-5.71-2.94-7.93-5.35c-2.23-2.41-3.95-5.5-5.17-9.26c-1.23-3.76-1.84-8.28-1.84-13.57c0-4.06,0.57-7.89,1.72-11.5
				c1.15-3.6,2.78-6.77,4.89-9.49c2.11-2.72,4.72-4.87,7.82-6.44c3.11-1.57,6.61-2.36,10.52-2.36c3.91,0,7.26,0.71,10.06,2.13
				c2.79,1.42,5.06,3.32,6.78,5.7c1.72,2.38,2.99,5.14,3.8,8.28C382.74,484.09,383.15,487.34,383.15,490.71z M377.05,488.76
				c-0.08-6.06-1.53-10.78-4.37-14.14c-2.84-3.38-6.75-5.06-11.73-5.06c-2.53,0-4.83,0.48-6.9,1.44c-2.07,0.96-3.89,2.29-5.46,3.97
				c-1.57,1.69-2.84,3.72-3.8,6.1c-0.96,2.37-1.63,4.95-2.01,7.7H377.05z"/>
			<path class="st0" d="M430.29,508.08c0,2.07-0.46,4.1-1.38,6.09c-0.92,1.99-2.26,3.76-4.03,5.29c-1.76,1.54-4.01,2.76-6.73,3.68
				c-2.72,0.92-5.85,1.38-9.38,1.38c-2.53,0-5.02-0.29-7.47-0.86c-2.46-0.57-4.37-1.21-5.75-1.9c0.08-1.07,0.15-2.1,0.23-3.11
				c0.07-1,0.19-2.03,0.34-3.11c1.76,1.23,3.91,2.21,6.45,2.94c2.53,0.73,4.9,1.09,7.13,1.09c4.75,0,8.4-1.03,10.93-3.11
				c2.53-2.07,3.79-4.71,3.79-7.93c0-2.14-0.71-3.94-2.13-5.4c-1.42-1.46-3.2-2.72-5.34-3.8c-2.15-1.07-4.49-2.13-7.01-3.16
				c-2.53-1.03-4.87-2.2-7.02-3.5c-2.14-1.3-3.93-2.89-5.34-4.78c-1.42-1.88-2.13-4.27-2.13-7.18c0-4.83,1.84-8.68,5.52-11.56
				c3.68-2.87,8.58-4.31,14.72-4.31c2.22,0,4.41,0.25,6.56,0.75c2.14,0.5,3.94,1.05,5.4,1.66c-0.08,0.92-0.15,1.84-0.23,2.76
				c-0.08,0.92-0.16,1.88-0.23,2.88c-1.76-1-3.72-1.78-5.86-2.36c-2.15-0.57-4.34-0.86-6.56-0.86c-4.37,0-7.7,0.96-10.01,2.87
				c-2.3,1.92-3.45,4.45-3.45,7.59c0,2.37,0.7,4.31,2.13,5.81c1.42,1.49,3.2,2.79,5.34,3.91c2.14,1.11,4.49,2.13,7.02,3.05
				c2.53,0.92,4.86,2.03,7.01,3.33c2.15,1.31,3.93,2.88,5.34,4.72C429.59,502.79,430.29,505.17,430.29,508.08z"/>
			<path class="st0" d="M477.9,508.08c0,2.07-0.46,4.1-1.38,6.09c-0.92,1.99-2.26,3.76-4.03,5.29c-1.76,1.54-4.01,2.76-6.73,3.68
				c-2.72,0.92-5.85,1.38-9.38,1.38c-2.53,0-5.02-0.29-7.47-0.86c-2.46-0.57-4.37-1.21-5.75-1.9c0.08-1.07,0.15-2.1,0.23-3.11
				c0.07-1,0.19-2.03,0.34-3.11c1.76,1.23,3.91,2.21,6.45,2.94c2.53,0.73,4.9,1.09,7.13,1.09c4.75,0,8.4-1.03,10.93-3.11
				c2.53-2.07,3.79-4.71,3.79-7.93c0-2.14-0.71-3.94-2.13-5.4c-1.42-1.46-3.2-2.72-5.34-3.8c-2.15-1.07-4.49-2.13-7.01-3.16
				c-2.53-1.03-4.87-2.2-7.02-3.5c-2.14-1.3-3.93-2.89-5.34-4.78c-1.42-1.88-2.13-4.27-2.13-7.18c0-4.83,1.84-8.68,5.52-11.56
				c3.68-2.87,8.58-4.31,14.72-4.31c2.22,0,4.41,0.25,6.56,0.75c2.14,0.5,3.94,1.05,5.4,1.66c-0.08,0.92-0.15,1.84-0.23,2.76
				c-0.08,0.92-0.16,1.88-0.23,2.88c-1.76-1-3.71-1.78-5.86-2.36c-2.15-0.57-4.34-0.86-6.56-0.86c-4.37,0-7.71,0.96-10.01,2.87
				c-2.3,1.92-3.45,4.45-3.45,7.59c0,2.37,0.7,4.31,2.13,5.81c1.42,1.49,3.2,2.79,5.34,3.91c2.14,1.11,4.49,2.13,7.02,3.05
				c2.53,0.92,4.86,2.03,7.01,3.33c2.14,1.31,3.93,2.88,5.34,4.72C477.19,502.79,477.9,505.17,477.9,508.08z"/>
			<path class="st0" d="M554.84,523.37V511.3h-0.23c-1.53,3.91-4.08,7.1-7.65,9.54c-3.56,2.46-7.72,3.68-12.47,3.68
				c-2.61,0-4.93-0.42-6.96-1.27c-2.03-0.84-3.76-1.95-5.17-3.33c-1.42-1.38-2.49-3.01-3.22-4.89c-0.73-1.88-1.1-3.85-1.1-5.92
				c0-3.37,0.71-6.19,2.13-8.45c1.42-2.26,3.62-4.16,6.62-5.7c2.99-1.53,6.79-2.76,11.38-3.68c4.6-0.92,10.04-1.68,16.33-2.3
				c0-6.59-0.98-11.44-2.94-14.55c-1.95-3.11-5.61-4.66-10.98-4.66c-3.15,0-6.27,0.57-9.38,1.73c-3.1,1.15-5.88,2.64-8.34,4.48
				c-0.15-0.92-0.3-1.88-0.46-2.88c-0.15-0.99-0.3-1.95-0.46-2.87c2.38-1.38,5.29-2.63,8.74-3.74c3.45-1.11,6.98-1.67,10.58-1.67
				c6.74,0,11.61,1.75,14.6,5.23c2.99,3.49,4.45,8.46,4.37,14.89l-0.23,21.62c-0.08,2.76-0.12,5.67-0.12,8.74
				c0,3.07,0.15,5.75,0.46,8.05H554.84z M554.49,493.7c-5.98,0.62-10.93,1.29-14.84,2.02s-7.01,1.65-9.32,2.76
				c-2.3,1.11-3.93,2.47-4.89,4.08c-0.96,1.61-1.44,3.56-1.44,5.87c0,2.99,0.98,5.61,2.93,7.88c1.96,2.26,4.81,3.39,8.57,3.39
				c2.76,0,5.31-0.57,7.65-1.72c2.34-1.15,4.34-2.74,5.98-4.78c1.65-2.03,2.95-4.39,3.91-7.07c0.96-2.68,1.44-5.55,1.44-8.63V493.7z
				"/>
			<path class="st0" d="M619.11,523.37v-34.96c0-6.21-1-10.89-2.99-14.03c-1.99-3.14-5.48-4.71-10.46-4.71
				c-2.84,0-5.43,0.59-7.76,1.78c-2.34,1.19-4.35,2.82-6.03,4.89c-1.69,2.07-2.99,4.51-3.91,7.3c-0.92,2.8-1.38,5.85-1.38,9.14
				v30.59h-5.63v-57.38h5.75c0,0.46,0,1.26,0,2.41c0,1.15-0.04,2.36-0.12,3.62c-0.08,1.27-0.15,2.46-0.23,3.56
				c-0.08,1.11-0.15,1.86-0.23,2.24l0.23,0.12c1.76-4.14,4.41-7.36,7.93-9.66c3.53-2.3,7.71-3.45,12.53-3.45
				c3.3,0,6.1,0.54,8.4,1.61c2.3,1.07,4.18,2.59,5.64,4.54c1.45,1.96,2.49,4.25,3.1,6.9c0.61,2.64,0.92,5.5,0.92,8.57v36.91H619.11z
				"/>
			<path class="st0" d="M683.17,523.37v-12.3h-0.23c-1.69,3.91-4.25,7.13-7.71,9.66c-3.45,2.53-7.71,3.79-12.77,3.79
				c-3.68,0-6.92-0.69-9.72-2.07c-2.8-1.38-5.14-3.29-7.01-5.75c-1.88-2.46-3.28-5.39-4.2-8.8c-0.92-3.41-1.38-7.15-1.38-11.21
				c0-4.83,0.61-9.18,1.84-13.05c1.22-3.87,2.95-7.17,5.17-9.89c2.22-2.72,4.89-4.81,7.99-6.26c3.1-1.46,6.53-2.19,10.29-2.19
				c1.99,0,3.91,0.3,5.75,0.92s3.5,1.4,5,2.36c1.49,0.96,2.83,2.03,4.02,3.22c1.19,1.19,2.17,2.4,2.94,3.62v-35.99l5.29-0.57v84.52
				H683.17z M682.94,482.09c-0.84-1.61-1.82-3.16-2.94-4.66c-1.11-1.49-2.4-2.78-3.85-3.85c-1.46-1.07-3.13-1.93-5-2.59
				c-1.88-0.65-3.97-0.98-6.27-0.98c-5.75,0-10.31,2.34-13.68,7.02c-3.38,4.68-5.06,11.12-5.06,19.32c0,3.38,0.35,6.5,1.04,9.37
				c0.69,2.88,1.74,5.35,3.16,7.42c1.42,2.07,3.18,3.7,5.29,4.89c2.1,1.19,4.58,1.79,7.41,1.79c3.53,0,6.56-0.78,9.09-2.36
				c2.53-1.57,4.6-3.52,6.21-5.87c1.61-2.34,2.78-4.89,3.5-7.65c0.73-2.76,1.1-5.36,1.1-7.82V482.09z"/>
			<path class="st0" d="M758.03,523.89c-1.69,0.35-3.3,0.52-4.83,0.52c-4.99,0-8.47-1.25-10.46-3.74c-2-2.49-2.99-6.5-2.99-12.02
				v-37.83h-12.19v-4.83h12.19v-16.9c0.39-0.16,1.11-0.36,2.19-0.63c1.07-0.27,2.23-0.63,3.45-1.1v18.63h16.9v4.83h-16.9v35.88
				c0,4.76,0.63,8.05,1.9,9.89c1.27,1.84,3.62,2.76,7.07,2.76c1.3,0,2.66-0.17,4.08-0.52c1.42-0.35,2.63-0.71,3.62-1.1l0.46,5.06
				C761.21,523.18,759.71,523.54,758.03,523.89z"/>
			<path class="st0" d="M817.94,490.71c0,0.39,0,0.81,0,1.27c0,0.46-0.04,1-0.12,1.61h-40.59v1.27c0,8.2,1.74,14.37,5.23,18.52
				c3.49,4.14,8.49,6.21,15.01,6.21c3.22,0,6.29-0.47,9.2-1.44c2.91-0.96,5.64-2.32,8.17-4.08c0.15,0.92,0.29,1.84,0.4,2.76
				c0.12,0.92,0.25,1.8,0.4,2.65c-2.53,1.45-5.4,2.66-8.63,3.62c-3.22,0.96-6.79,1.44-10.69,1.44c-3.76,0-7.17-0.57-10.24-1.72
				c-3.06-1.15-5.71-2.94-7.93-5.35c-2.23-2.41-3.95-5.5-5.17-9.26c-1.23-3.76-1.84-8.28-1.84-13.57c0-4.06,0.57-7.89,1.72-11.5
				c1.15-3.6,2.78-6.77,4.89-9.49c2.11-2.72,4.72-4.87,7.82-6.44c3.11-1.57,6.61-2.36,10.52-2.36c3.91,0,7.26,0.71,10.06,2.13
				c2.79,1.42,5.06,3.32,6.79,5.7c1.72,2.38,2.99,5.14,3.8,8.28C817.54,484.09,817.94,487.34,817.94,490.71z M811.85,488.76
				c-0.08-6.06-1.53-10.78-4.37-14.14c-2.84-3.38-6.75-5.06-11.73-5.06c-2.53,0-4.83,0.48-6.9,1.44c-2.07,0.96-3.89,2.29-5.46,3.97
				c-1.57,1.69-2.84,3.72-3.8,6.1c-0.96,2.37-1.63,4.95-2.01,7.7H811.85z"/>
			<path class="st0" d="M863.48,523.32c-2.92,0.73-6.06,1.1-9.43,1.1s-6.57-0.56-9.6-1.67c-3.03-1.11-5.7-2.84-8-5.17
				c-2.3-2.34-4.12-5.29-5.46-8.85c-1.34-3.57-2.01-7.76-2.01-12.59c0-4.75,0.65-9.05,1.95-12.88c1.31-3.83,3.15-7.11,5.52-9.83
				c2.38-2.72,5.26-4.8,8.63-6.26c3.38-1.46,7.17-2.19,11.39-2.19c2.84,0,5.48,0.25,7.94,0.75c2.45,0.5,4.6,1.13,6.44,1.89
				l-0.81,5.52c-1.84-0.84-4.01-1.62-6.5-2.36c-2.49-0.73-5.19-1.09-8.1-1.09c-3.22,0-6.08,0.65-8.57,1.95
				c-2.5,1.31-4.62,3.09-6.39,5.35c-1.76,2.26-3.1,4.96-4.03,8.11c-0.92,3.14-1.38,6.55-1.38,10.23c0,3.6,0.36,6.88,1.09,9.83
				c0.73,2.95,1.9,5.5,3.51,7.65c1.61,2.15,3.66,3.81,6.15,5c2.49,1.19,5.5,1.78,9.03,1.78c3.06,0,5.88-0.38,8.45-1.15
				c2.57-0.77,4.85-1.72,6.84-2.88l0.8,5.18C868.89,521.73,866.4,522.59,863.48,523.32z"/>
			<path class="st0" d="M923.62,523.37v-35.53c0-6.13-1.01-10.7-3.05-13.69c-2.03-2.99-5.54-4.48-10.52-4.48
				c-2.38,0-4.7,0.46-6.96,1.38c-2.26,0.92-4.3,2.36-6.09,4.31c-1.8,1.96-3.24,4.43-4.31,7.42c-1.07,2.99-1.61,6.56-1.61,10.69v29.9
				h-5.75v-84.52l5.75,1.15v28.86c0,1.84-0.03,3.49-0.11,4.95c-0.08,1.46-0.23,2.84-0.46,4.14c0.08,0,0.12,0.02,0.12,0.06
				c0,0.04,0.03,0.05,0.11,0.05c1.76-3.91,4.37-7.09,7.82-9.54c3.45-2.45,7.66-3.68,12.65-3.68c3.29,0,6.08,0.52,8.34,1.55
				c2.26,1.04,4.12,2.47,5.58,4.31c1.45,1.84,2.51,4.07,3.16,6.67c0.65,2.61,0.98,5.52,0.98,8.74v37.26H923.62z"/>
			<path class="st0" d="M988.13,523.37v-34.96c0-6.21-1-10.89-2.99-14.03c-1.99-3.14-5.48-4.71-10.47-4.71
				c-2.84,0-5.43,0.59-7.76,1.78c-2.34,1.19-4.35,2.82-6.04,4.89c-1.69,2.07-2.99,4.51-3.91,7.3c-0.92,2.8-1.38,5.85-1.38,9.14
				v30.59h-5.63v-57.38h5.75c0,0.46,0,1.26,0,2.41c0,1.15-0.04,2.36-0.12,3.62c-0.08,1.27-0.15,2.46-0.23,3.56
				c-0.08,1.11-0.15,1.86-0.23,2.24l0.23,0.12c1.76-4.14,4.41-7.36,7.93-9.66c3.53-2.3,7.7-3.45,12.53-3.45c3.3,0,6.1,0.54,8.4,1.61
				c2.3,1.07,4.18,2.59,5.64,4.54c1.45,1.96,2.49,4.25,3.11,6.9c0.61,2.64,0.92,5.5,0.92,8.57v36.91H988.13z"/>
			<path class="st0" d="M1061.5,494.39c0,4.07-0.57,7.92-1.73,11.56c-1.15,3.64-2.84,6.84-5.06,9.6c-2.23,2.76-5.02,4.95-8.4,6.56
				c-3.38,1.61-7.24,2.41-11.61,2.41c-4.07,0-7.69-0.71-10.87-2.13c-3.18-1.42-5.87-3.43-8.05-6.04c-2.19-2.61-3.85-5.73-5-9.38
				c-1.15-3.64-1.73-7.65-1.73-12.02c0-4.83,0.67-9.1,2.02-12.82c1.34-3.71,3.2-6.86,5.57-9.43c2.38-2.57,5.22-4.52,8.51-5.87
				c3.29-1.34,6.94-2.02,10.92-2.02c3.53,0,6.84,0.6,9.95,1.79c3.11,1.19,5.81,2.99,8.11,5.4c2.3,2.41,4.1,5.48,5.4,9.2
				C1060.84,484.95,1061.5,489.34,1061.5,494.39z M1055.64,494.51c0-8.13-1.75-14.3-5.23-18.52c-3.49-4.21-8.46-6.32-14.89-6.32
				c-2.84,0-5.5,0.53-7.99,1.61c-2.49,1.08-4.66,2.67-6.5,4.78c-1.84,2.11-3.29,4.72-4.37,7.82c-1.07,3.11-1.6,6.73-1.6,10.87
				c0,7.59,1.78,13.65,5.34,18.17c3.57,4.52,8.61,6.78,15.12,6.78c2.99,0,5.71-0.56,8.17-1.67c2.45-1.11,4.58-2.74,6.38-4.89
				c1.8-2.14,3.18-4.79,4.14-7.93C1055.16,502.06,1055.64,498.49,1055.64,494.51z"/>
			<path class="st0" d="M1077.49,523.37v-83.49l5.63-1.15v84.64H1077.49z"/>
			<path class="st0" d="M1151.31,494.39c0,4.07-0.57,7.92-1.73,11.56c-1.15,3.64-2.84,6.84-5.06,9.6c-2.23,2.76-5.02,4.95-8.4,6.56
				c-3.38,1.61-7.24,2.41-11.61,2.41c-4.07,0-7.69-0.71-10.87-2.13c-3.18-1.42-5.86-3.43-8.05-6.04c-2.19-2.61-3.85-5.73-5-9.38
				c-1.15-3.64-1.73-7.65-1.73-12.02c0-4.83,0.67-9.1,2.02-12.82c1.34-3.71,3.2-6.86,5.57-9.43c2.38-2.57,5.21-4.52,8.51-5.87
				c3.29-1.34,6.94-2.02,10.92-2.02c3.53,0,6.84,0.6,9.95,1.79c3.1,1.19,5.81,2.99,8.11,5.4c2.3,2.41,4.1,5.48,5.4,9.2
				C1150.66,484.95,1151.31,489.34,1151.31,494.39z M1145.45,494.51c0-8.13-1.75-14.3-5.23-18.52c-3.49-4.21-8.46-6.32-14.9-6.32
				c-2.84,0-5.5,0.53-7.99,1.61c-2.49,1.08-4.66,2.67-6.5,4.78c-1.84,2.11-3.29,4.72-4.37,7.82c-1.07,3.11-1.61,6.73-1.61,10.87
				c0,7.59,1.78,13.65,5.34,18.17c3.57,4.52,8.61,6.78,15.12,6.78c2.99,0,5.71-0.56,8.17-1.67c2.45-1.11,4.58-2.74,6.38-4.89
				c1.8-2.14,3.18-4.79,4.14-7.93C1144.97,502.06,1145.45,498.49,1145.45,494.51z"/>
			<path class="st0" d="M1211.8,519.12c0,4.83-0.48,9.18-1.44,13.05c-0.96,3.87-2.57,7.15-4.83,9.83c-2.26,2.68-5.23,4.76-8.91,6.21
				c-3.68,1.46-8.28,2.19-13.8,2.19c-3.22,0-6.32-0.44-9.32-1.32c-2.99-0.88-5.6-1.89-7.82-3.05v-5.4c2.76,1.53,5.69,2.76,8.79,3.68
				s5.92,1.38,8.46,1.38c3.68,0,6.97-0.44,9.89-1.32c2.91-0.88,5.4-2.32,7.47-4.31c2.07-2,3.65-4.6,4.72-7.82
				c1.07-3.22,1.61-7.13,1.61-11.73v-7.47h-0.23c-2.22,3.91-5.12,6.84-8.68,8.79c-3.57,1.96-7.54,2.94-11.91,2.94
				c-3.22,0-6.29-0.6-9.2-1.79c-2.91-1.18-5.46-2.97-7.65-5.34c-2.19-2.38-3.93-5.39-5.23-9.03c-1.3-3.64-1.95-7.95-1.95-12.94
				c0-4.52,0.61-8.68,1.84-12.48c1.22-3.8,2.99-7.07,5.28-9.83c2.3-2.76,5.06-4.93,8.28-6.5c3.22-1.57,6.86-2.36,10.93-2.36
				c4.83,0,8.68,1,11.55,2.99c2.88,1.99,5.12,4.48,6.73,7.47h0.23v-9.08h5.17V519.12z M1206.63,487.95c0-2.3-0.4-4.56-1.21-6.79
				c-0.81-2.22-1.97-4.24-3.51-6.03c-1.54-1.8-3.45-3.24-5.75-4.31c-2.3-1.07-4.95-1.61-7.93-1.61c-3.3,0-6.25,0.63-8.86,1.9
				c-2.61,1.27-4.81,3.05-6.61,5.35c-1.8,2.3-3.18,5.04-4.14,8.22c-0.96,3.18-1.44,6.69-1.44,10.52c0,4.37,0.52,8.1,1.55,11.21
				c1.04,3.11,2.43,5.68,4.2,7.71c1.76,2.03,3.81,3.53,6.15,4.49c2.34,0.95,4.81,1.44,7.42,1.44c3.38,0,6.33-0.59,8.85-1.78
				c2.53-1.19,4.62-2.74,6.27-4.66c1.65-1.92,2.9-4.12,3.74-6.62c0.84-2.49,1.27-5.04,1.27-7.65V487.95z"/>
			<path class="st0" d="M1246.52,532.8c-1.46,3.6-2.95,6.61-4.48,9.03c-1.54,2.41-3.16,4.35-4.89,5.81
				c-1.72,1.46-3.6,2.49-5.63,3.11c-2.03,0.62-4.28,0.92-6.73,0.92c-0.84,0-1.75-0.1-2.71-0.29c-0.96-0.19-1.74-0.36-2.36-0.52
				l0.46-5.41c0.69,0.23,1.57,0.42,2.64,0.57s2.07,0.23,2.99,0.23c2.99,0,5.64-0.92,7.93-2.76c2.3-1.84,4.52-5.14,6.67-9.89
				l3.91-10.46l-21.96-57.15h6.55l18.29,50.6h0.23c0.15-0.3,0.33-0.73,0.52-1.27c0.19-0.53,0.52-1.44,0.98-2.7
				c0.46-1.27,1.11-2.99,1.96-5.17c0.84-2.19,1.92-5.1,3.22-8.74c1.31-3.64,2.94-8.13,4.89-13.45c1.96-5.33,4.28-11.75,6.96-19.26
				h6.21L1246.52,532.8z"/>
		</g>
	</g>
</g>
</svg>
